<svg version="1.1" xmlns="http://www.w3.org/2000/svg" xmlns:xlink="http://www.w3.org/1999/xlink" width="482" height="359.2641" viewBox="0,0,482,359.2641"><g transform="translate(0.44531,0.05989)"><g data-paper-data="{&quot;isPaintingLayer&quot;:true}" fill-rule="nonzero" stroke-linejoin="miter" stroke-miterlimit="10" stroke-dasharray="" stroke-dashoffset="0" style="mix-blend-mode: normal"><path d="M-0.25826,359.20421v-358.40841h480.51652v358.40841z" fill="#9e9e9e" stroke="none" stroke-width="0" stroke-linecap="butt"/><path d="M-0.44531,59.94011v-60h482v60z" fill="#cdcdcd" stroke="none" stroke-width="0" stroke-linecap="butt"/><text transform="translate(2.19235,36.99673) scale(0.70479,0.70479)" font-size="40" xml:space="preserve" fill="#000000" fill-rule="nonzero" stroke="none" stroke-width="1" stroke-linecap="butt" stroke-linejoin="miter" stroke-miterlimit="10" stroke-dasharray="" stroke-dashoffset="0" font-family="Source Han Sans" font-weight="normal" text-anchor="start" style="mix-blend-mode: normal"><tspan x="0" dy="0">          Wisual Studio                   开发进度</tspan></text><path d="M15.28445,18.084c0,0 -4.01444,2.52394 -3.89326,7.12874c0.13603,5.169 4.67003,9.25416 4.67003,9.25416c0,0 5.82204,1.68874 8.76057,-0.66666c2.97566,-2.38516 2.62796,-7.2007 2.62796,-7.2007c0,0 6.90006,-11.88621 10.11962,-14.46687c2.93904,-2.35581 8.43301,2.13807 8.43301,2.13807c0,0 5.59434,4.44881 5.66923,10.51456c0.07489,6.06575 -5.31616,13.42424 -5.31616,13.42424c0,0 -4.68557,4.89343 -10.39536,0.53028c-6.63615,-5.07103 -8.3004,-17.55472 -11.95548,-20.34774c-3.74781,-2.86389 -8.72015,-0.30808 -8.72015,-0.30808z" fill="none" stroke="#000000" stroke-width="3" stroke-linecap="round"/><path d="M6.55469,134.94011c0,0 317.66399,-1.42771 388.99664,-1.7483c10.02907,-0.04507 38.03113,20.77329 35.6862,39.66816c-1.45923,11.7581 -18.46678,22.44119 -27.29275,29.63409c-2.62708,2.141 -327.80125,0.26747 -327.80125,0.26747c0,0 -27.6441,15.76723 -28.05125,26.08002c-0.30445,7.71146 21.85076,28.24034 21.85076,28.24034l344.7729,1.32472" fill="none" stroke="#6d6d6d" stroke-width="3" stroke-linecap="round"/><path d="M10.76137,134.64436c0,-2.48528 2.01472,-4.5 4.5,-4.5c2.48528,0 4.5,2.01472 4.5,4.5c0,2.48528 -2.01472,4.5 -4.5,4.5c-2.48528,0 -4.5,-2.01472 -4.5,-4.5z" fill="#323232" stroke="none" stroke-width="0.5" stroke-linecap="butt"/><text transform="translate(9.15664,122.42629) scale(0.36702,0.36702)" font-size="40" xml:space="preserve" fill="#cecece" fill-rule="nonzero" stroke="none" stroke-width="1" stroke-linecap="butt" stroke-linejoin="miter" stroke-miterlimit="10" stroke-dasharray="" stroke-dashoffset="0" font-family="Source Han Sans" font-weight="normal" text-anchor="start" style="mix-blend-mode: normal"><tspan x="0" dy="0">2022.12.27</tspan><tspan x="0" dy="48px"> </tspan><tspan x="0" dy="48px">Alpha 5.38</tspan></text><path d="M114.46387,135.39432c0,-2.48528 2.01472,-4.5 4.5,-4.5c2.48528,0 4.5,2.01472 4.5,4.5c0,2.48528 -2.01472,4.5 -4.5,4.5c-2.48528,0 -4.5,-2.01472 -4.5,-4.5z" fill="#c5c5c5" stroke="none" stroke-width="0.5" stroke-linecap="butt"/><text transform="translate(197.28164,121.80129) scale(0.36702,0.36702)" font-size="40" xml:space="preserve" fill="#000000" fill-rule="nonzero" stroke="none" stroke-width="1" stroke-linecap="butt" stroke-linejoin="miter" stroke-miterlimit="10" stroke-dasharray="" stroke-dashoffset="0" font-family="Source Han Sans" font-weight="normal" text-anchor="start" style="mix-blend-mode: normal"><tspan x="0" dy="0">2023.02.01</tspan><tspan x="0" dy="48px"> </tspan><tspan x="0" dy="48px">3.6.0 Dev-1</tspan></text><path d="M220.08887,136.01932c0,-2.48528 2.01472,-4.5 4.5,-4.5c2.48528,0 4.5,2.01472 4.5,4.5c0,2.48528 -2.01472,4.5 -4.5,4.5c-2.48528,0 -4.5,-2.01472 -4.5,-4.5z" fill="#323232" stroke="none" stroke-width="0.5" stroke-linecap="butt"/><text transform="translate(298.53164,119.92629) scale(0.36702,0.36702)" font-size="40" xml:space="preserve" fill="#000000" fill-rule="nonzero" stroke="none" stroke-width="1" stroke-linecap="butt" stroke-linejoin="miter" stroke-miterlimit="10" stroke-dasharray="" stroke-dashoffset="0" font-family="Source Han Sans" font-weight="normal" text-anchor="start" style="mix-blend-mode: normal"><tspan x="0" dy="0">2023.02.08</tspan><tspan x="0" dy="48px"> </tspan><tspan x="0" dy="48px">3.6.1 Dev-2</tspan></text><path d="M314.46387,134.14432c0,-2.48528 2.01472,-4.5 4.5,-4.5c2.48528,0 4.5,2.01472 4.5,4.5c0,2.48528 -2.01472,4.5 -4.5,4.5c-2.48528,0 -4.5,-2.01472 -4.5,-4.5z" fill="#323232" stroke="none" stroke-width="0.5" stroke-linecap="butt"/><text transform="translate(393.62207,151.6231) scale(0.36702,0.36702)" font-size="40" xml:space="preserve" fill="#000000" fill-rule="nonzero" stroke="none" stroke-width="1" stroke-linecap="butt" stroke-linejoin="miter" stroke-miterlimit="10" stroke-dasharray="" stroke-dashoffset="0" font-family="Source Han Sans" font-weight="normal" text-anchor="start" style="mix-blend-mode: normal"><tspan x="0" dy="0">2023.02.08</tspan><tspan x="0" dy="48px"> </tspan><tspan x="0" dy="48px">3.6.2 Pre-1</tspan></text><path d="M425.71387,165.39432c0,-2.48528 2.01472,-4.5 4.5,-4.5c2.48528,0 4.5,2.01472 4.5,4.5c0,2.48528 -2.01472,4.5 -4.5,4.5c-2.48528,0 -4.5,-2.01472 -4.5,-4.5z" fill="#323232" stroke="none" stroke-width="0.5" stroke-linecap="butt"/><text transform="translate(311.73424,189.79845) scale(0.36702,0.36702)" font-size="40" xml:space="preserve" fill="#000000" fill-rule="nonzero" stroke="none" stroke-width="1" stroke-linecap="butt" stroke-linejoin="miter" stroke-miterlimit="10" stroke-dasharray="" stroke-dashoffset="0" font-family="Source Han Sans" font-weight="normal" text-anchor="start" style="mix-blend-mode: normal"><tspan x="0" dy="0">2023.02.28</tspan><tspan x="0" dy="48px"> </tspan><tspan x="0" dy="48px">3.6.3 Dev-3</tspan></text><text transform="translate(215.88905,189.52989) scale(0.36702,0.36702)" font-size="40" xml:space="preserve" fill="#000000" fill-rule="nonzero" stroke="none" stroke-width="1" stroke-linecap="butt" stroke-linejoin="miter" stroke-miterlimit="10" stroke-dasharray="" stroke-dashoffset="0" font-family="Source Han Sans" font-weight="normal" text-anchor="start" style="mix-blend-mode: normal"><tspan x="0" dy="0">2023.03.11</tspan><tspan x="0" dy="48px"> </tspan><tspan x="0" dy="48px">3.6.4 Pre-2</tspan></text><text transform="translate(115.83376,189.00067) scale(0.36702,0.36702)" font-size="40" xml:space="preserve" fill="#000000" fill-rule="nonzero" stroke="none" stroke-width="1" stroke-linecap="butt" stroke-linejoin="miter" stroke-miterlimit="10" stroke-dasharray="" stroke-dashoffset="0" font-family="Source Han Sans" font-weight="normal" text-anchor="start" style="mix-blend-mode: normal"><tspan x="0" dy="0">2023.04.07</tspan><tspan x="0" dy="48px"> </tspan><tspan x="0" dy="48px">Demo</tspan></text><text transform="translate(6.2998,217.69735) scale(0.36702,0.36702)" font-size="40" xml:space="preserve" fill="#000000" fill-rule="nonzero" stroke="none" stroke-width="1" stroke-linecap="butt" stroke-linejoin="miter" stroke-miterlimit="10" stroke-dasharray="" stroke-dashoffset="0" font-family="Source Han Sans" font-weight="normal" text-anchor="start" style="mix-blend-mode: normal"><tspan x="0" dy="0">2023.04.20</tspan><tspan x="0" dy="48px"> </tspan><tspan x="0" dy="48px">3.6.5 RC</tspan></text><text transform="translate(188.82215,244.40871) scale(0.36702,0.36702)" font-size="40" xml:space="preserve" fill="#000000" fill-rule="nonzero" stroke="none" stroke-width="1" stroke-linecap="butt" stroke-linejoin="miter" stroke-miterlimit="10" stroke-dasharray="" stroke-dashoffset="0" font-family="Source Han Sans" font-weight="normal" text-anchor="start" style="mix-blend-mode: normal"><tspan x="0" dy="0">2023.05.02</tspan><tspan x="0" dy="48px"> </tspan><tspan x="0" dy="48px">3.6.6 LTS</tspan></text><path d="M342.33802,203.97711c0,-2.48528 2.01472,-4.5 4.5,-4.5c2.48528,0 4.5,2.01472 4.5,4.5c0,2.48528 -2.01472,4.5 -4.5,4.5c-2.48528,0 -4.5,-2.01472 -4.5,-4.5z" fill="#323232" stroke="none" stroke-width="0.5" stroke-linecap="butt"/><path d="M249.13106,203.97711c0,-2.48528 2.01472,-4.5 4.5,-4.5c2.48528,0 4.5,2.01472 4.5,4.5c0,2.48528 -2.01472,4.5 -4.5,4.5c-2.48528,0 -4.5,-2.01472 -4.5,-4.5z" fill="#323232" stroke="none" stroke-width="0.5" stroke-linecap="butt"/><path d="M144.86566,203.97711c0,-2.48528 2.01472,-4.5 4.5,-4.5c2.48528,0 4.5,2.01472 4.5,4.5c0,2.48528 -2.01472,4.5 -4.5,4.5c-2.48528,0 -4.5,-2.01472 -4.5,-4.5z" fill="#323232" stroke="none" stroke-width="0.5" stroke-linecap="butt"/><path d="M43.75982,229.25357c0,-2.48528 2.01472,-4.5 4.5,-4.5c2.48528,0 4.5,2.01472 4.5,4.5c0,2.48528 -2.01472,4.5 -4.5,4.5c-2.48528,0 -4.5,-2.01472 -4.5,-4.5z" fill="#323232" stroke="none" stroke-width="0.5" stroke-linecap="butt"/><path d="M219.90516,258.47947c0,-2.48528 2.01472,-4.5 4.5,-4.5c2.48528,0 4.5,2.01472 4.5,4.5c0,2.48528 -2.01472,4.5 -4.5,4.5c-2.48528,0 -4.5,-2.01472 -4.5,-4.5z" fill="#323232" stroke="none" stroke-width="0.5" stroke-linecap="butt"/><path d="M85.2574,138.39521l0.5359,-36.97749l13.93355,9.1104l-12.86173,5.89496" fill="none" stroke="#c8c8c8" stroke-width="3" stroke-linecap="round"/><text transform="translate(94.15664,123.67629) scale(0.36702,0.36702)" font-size="40" xml:space="preserve" fill="#2d2d2d" fill-rule="nonzero" stroke="none" stroke-width="1" stroke-linecap="butt" stroke-linejoin="miter" stroke-miterlimit="10" stroke-dasharray="" stroke-dashoffset="0" font-family="Source Han Sans" font-weight="normal" text-anchor="start" style="mix-blend-mode: normal"><tspan x="0" dy="0">2023.01.15</tspan><tspan x="0" dy="48px"> </tspan><tspan x="0" dy="48px">Alpha 5.39</tspan></text></g></g></svg>
