<svg version="1.1" xmlns="http://www.w3.org/2000/svg" xmlns:xlink="http://www.w3.org/1999/xlink" width="480.82353" height="359.26409" viewBox="0,0,480.82353,359.26409"><g transform="translate(0.44531,0.05989)"><g data-paper-data="{&quot;isPaintingLayer&quot;:true}" fill-rule="nonzero" stroke-linejoin="miter" stroke-miterlimit="10" stroke-dasharray="" stroke-dashoffset="0" style="mix-blend-mode: normal"><path d="M-0.25826,359.2042v-358.40841h480.51652v358.40841z" fill="#9e9e9e" stroke="none" stroke-width="0" stroke-linecap="butt"/><path d="M-0.44531,59.94011v-60h480.82353v60z" fill="#cdcdcd" stroke="none" stroke-width="0" stroke-linecap="butt"/><text transform="translate(2.19235,36.99673) scale(0.70479,0.70479)" font-size="40" xml:space="preserve" fill="#000000" fill-rule="nonzero" stroke="none" stroke-width="1" stroke-linecap="butt" stroke-linejoin="miter" stroke-miterlimit="10" stroke-dasharray="" stroke-dashoffset="0" font-family="Source Han Sans" font-weight="normal" text-anchor="start" style="mix-blend-mode: normal"><tspan x="0" dy="0">          Wisual Studio                   开发进度</tspan></text><path d="M15.28445,18.084c0,0 -4.01444,2.52394 -3.89326,7.12874c0.13603,5.169 4.67003,9.25416 4.67003,9.25416c0,0 5.82204,1.68874 8.76057,-0.66666c2.97566,-2.38516 2.62796,-7.2007 2.62796,-7.2007c0,0 6.90006,-11.88621 10.11962,-14.46687c2.93904,-2.35581 8.43301,2.13807 8.43301,2.13807c0,0 5.59434,4.44881 5.66923,10.51456c0.07489,6.06575 -5.31616,13.42424 -5.31616,13.42424c0,0 -4.68557,4.89343 -10.39536,0.53028c-6.63615,-5.07103 -8.3004,-17.55472 -11.95548,-20.34774c-3.74781,-2.86389 -8.72015,-0.30808 -8.72015,-0.30808z" fill="none" stroke="#000000" stroke-width="3" stroke-linecap="round"/><text transform="translate(32.1704,121.77903) scale(0.58007,0.58007)" font-size="40" xml:space="preserve" fill="#000000" fill-rule="nonzero" stroke="none" stroke-width="1" stroke-linecap="butt" stroke-linejoin="miter" stroke-miterlimit="10" stroke-dasharray="" stroke-dashoffset="0" font-family="Source Han Sans" font-weight="normal" text-anchor="start" style="mix-blend-mode: normal"><tspan x="0" dy="0">20221230     暂时停更</tspan></text></g></g></svg>
